# xmcd
#
# Track frame offsets:
#  150
#  10994
#  21096
#  31403
#  44819
#  57680
#  69129
#  82082
#  92161
#  104925
#  115180
#  124664
#  136982
#  146778
#
# Disc length: 2116 seconds
#
# Revision: 0
# Processed by: cddbd v1.5.2PL0 Copyright (c) Steve Scherf et al.
# Submitted via: Collectorz.com_Music_Collector 6.9
#
DISCID=d108420e
DTITLE=Various Artist - Country Cool Vol.1 - Nashville Legends CD 2
DYEAR=1900
DGENRE=
TTITLE0=Lynn Anderson - Heaven's Just A Sin Away
TTITLE1=Faron Young - Hello Walls
TTITLE2=Stonewall Jackson - Waterloo
TTITLE3=Barbara Fairchild - Teddy Bear Song
TTITLE4=Tommy Overstreet - Gwen
TTITLE5=Ferlin Husky - The Wings Of A Dove
TTITLE6=Jeanne Pruett - Satin Sheets
TTITLE7=Leroy Van Dyke - If A Woman Answers You
TTITLE8=Darrel Clanton - Lonesome 7-7203
TTITLE9=Barbara Mandrell - The Wayward Wind
TTITLE10=Johnny Lee - Red Sails In The Sunset
TTITLE11=Melba Montgomery - Jambalaya
TTITLE12=Bobby G Rice - Sugar Shack
TTITLE13=Freddy Fender - Almost Persuaded
EXTD=
EXTT0=
EXTT1=
EXTT2=
EXTT3=
EXTT4=
EXTT5=
EXTT6=
EXTT7=
EXTT8=
EXTT9=
EXTT10=
EXTT11=
EXTT12=
EXTT13=
PLAYORDER=
